HIERARCHY
ROOT ui
{
	 OFFSET 0 0 0
	 CHANNELS 3 XPosition YPosition Z Position
	 EndSite
	 {
	 OFFSET 0 -1 0
	 }
}
ROOT li
{
	 OFFSET 0 0 0
	 CHANNELS 3 XPosition YPosition Z Position
	 EndSite
	 {
	 OFFSET 0 -1 0
	 }
}
ROOT ul
{
	 OFFSET 0 0 0
	 CHANNELS 3 XPosition YPosition Z Position
	 EndSite
	 {
	 OFFSET 0 -1 0
	 }
}
ROOT ll
{
	 OFFSET 0 0 0
	 CHANNELS 3 XPosition YPosition Z Position
	 EndSite
	 {
	 OFFSET 0 -1 0
	 }
}
ROOT tt
{
	 OFFSET 0 0 0
	 CHANNELS 3 XPosition YPosition Z Position
	 EndSite
	 {
	 OFFSET 0 -1 0
	 }
}
ROOT tb
{
	 OFFSET 0 0 0
	 CHANNELS 3 XPosition YPosition Z Position
	 EndSite
	 {
	 OFFSET 0 -1 0
	 }
}
ROOT td
{
	 OFFSET 0 0 0
	 CHANNELS 3 XPosition YPosition Z Position
	 EndSite
	 {
	 OFFSET 0 -1 0
	 }
}
ROOT v
{
	 OFFSET 0 0 0
	 CHANNELS 3 XPosition YPosition Z Position
	 EndSite
	 {
	 OFFSET 0 -1 0
	 }
}
ROOT bn
{
	 OFFSET 0 0 0
	 CHANNELS 3 XPosition YPosition Z Position
	 EndSite
	 {
	 OFFSET 0 -1 0
	 }
}
MOTION
Frames: 24
Frame Time: 0.002
3.2278499007225037E-4	2.4727100133895875E-4	0		0.4988970947265625	-2.319237548828125	0		-1.126748046875	-0.0028182990550994873	0		-0.7334468383789062	-2.239371826171875	0		1.0527423095703126	-0.5240496215820313	0		2.765427001953125	-1.257140040397644E-4	0		4.43324365234375	0.08517665100097656	0		5.59710107421875	0.2846581726074219	0		-0.4842679443359375	5.8347451171875	0		
-0.022587709426879883	4.8740100860595703E-4	0		0.5010481872558594	-2.31920361328125	0		-1.128685546875	-0.005792985916137696	0		-0.700360595703125	-2.246643310546875	0		1.0967994384765625	-0.5293696899414062	0		2.795575927734375	0.0067229771614074705	0		4.43127734375	0.0793520278930664	0		5.5986044921875	0.2884100646972656	0		-0.48332791137695313	5.83576123046875	0		
0.0014427189826965333	-0.0036844000816345216	0		0.5011624145507813	-2.321150634765625	0		-1.126619140625	-0.005803409099578857	0		-0.7342033081054687	-2.24332666015625	0		1.095845703125	-0.5332909545898438	0		2.763643310546875	0.007120973110198975	0		4.43334130859375	0.07949830627441407	0		5.59787841796875	0.27146157836914064	0		-0.34723849487304687	5.8565947265625	0		
-0.021523462295532227	-0.0024445068836212156	0		0.47929849243164063	-2.315905029296875	0		-1.124594970703125	-0.005814530849456787	0		-0.7112545166015625	-2.259509033203125	0		1.0329400634765624	-0.5266702270507813	0		2.765667236328125	0.0072229552268981935	0		4.43536328125	0.07964883422851562	0		5.59932373046875	0.27177578735351565	0		-0.5476651611328125	5.82537109375	0		
0.00846581268310547	3.327479958534241E-4	0		0.513146484375	-2.33714697265625	0		-1.1105440673828124	0.004069410800933838	0		-0.7182848510742188	-2.2664296875	0		1.0728311767578125	-0.5369486694335938	0		2.803594970703125	0.003012387990951538	0		4.43935986328125	0.08378263092041016	0		5.60581201171875	0.29793539428710936	0		-0.5098379211425781	5.82906298828125	0		
-0.011618700981140137	0.0035454089641571043	0		0.4863287048339844	-2.310860107421875	0		-1.112681396484375	0.0010941059589385986	0		-0.65732470703125	-2.265940185546875	0		1.0598138427734376	-0.5277664184570312	0		2.79056201171875	0.012244272232055663	0		4.44326318359375	0.08591426086425781	0		5.6042646484375	0.286197021484375	0		-0.49502154541015625	5.83995703125	0		
-0.012845656394958497	5.930550098419189E-4	0		0.4851483154296875	-2.315798583984375	0		-1.118942626953125	-0.005845249176025391	0		-0.7262704467773438	-2.243323486328125	0		1.06162744140625	-0.5277152709960937	0		2.771318359375	0.0075249018669128415	0		4.4410078125	0.08009355926513671	0		5.60336083984375	0.272703369140625	0		-0.4734276428222656	5.83479248046875	0		
-0.01114869499206543	6.145250201225281E-4	0		0.5108618469238281	-2.320970703125	0		-1.1172454833984375	-0.005852686882019043	0		-0.6885419921875	-2.246630859375	0		1.063338134765625	-0.5276657104492187	0		2.795953857421875	4.211679995059967E-4	0		4.442703125	0.08023143005371093	0		5.60036083984375	0.2921090087890625	0		-0.47287451171875	5.835810546875	0		
-0.012588993072509765	-0.0023387451171875	0		0.46157437133789064	-2.312499267578125	0		-1.1156600341796874	-0.0058587841987609865	0		-0.6811513671875	-2.275677001953125	0		1.0649364013671876	-0.5276187133789062	0		2.806521728515625	-0.0015669169425964356	0		4.448337890625	0.08632611846923828	0		5.605705078125	0.27325897216796874	0		-0.5044815673828125	5.83010400390625	0		
-0.008096184730529785	6.549609899520874E-4	0		0.49108349609375	-2.313708984375	0		-1.1061329345703126	0.0010673190355300903	0		-0.7215033569335938	-2.260312744140625	0		1.0524072265625	-0.528455078125	0		2.788126708984375	0.014686324119567872	0		4.43880322265625	0.0865394058227539	0		5.6118369140625	0.2993511962890625	0		-0.523100830078125	5.83528369140625	0		
-0.006751237869262695	6.728379726409912E-4	0		0.49247515869140623	-2.31368115234375	0		-1.1047880859375	0.001063035011291504	0		-0.6511751708984375	-2.267899169921875	0		1.1157862548828126	-0.5259461059570313	0		2.78335205078125	8.124610185623169E-4	0		4.44709521484375	0.08058739471435547	0		5.60771337890625	0.273729736328125	0		-0.4678756103515625	5.83482958984375	0		
-0.008555645942687989	-0.0022857120037078856	0		0.5446768188476563	-2.321091064453125	0		-1.11162646484375	-0.005872725009918213	0		-0.7187053833007813	-2.24330712890625	0		1.046010986328125	-0.5263040161132813	0		2.819716796875	0.01757978820800781	0		4.4413662109375	0.0867438735961914	0		5.6107734375	0.2877264404296875	0		-0.46676092529296875	5.8348369140625	0		
-0.004432660102844238	7.018309831619263E-4	0		0.493857177734375	-2.315626220703125	0		-1.11052880859375	-0.00587775707244873	0		-0.68159765625	-2.2466123046875	0		1.1150977783203124	-0.5288524169921875	0		2.796729736328125	0.007844513893127441	0		4.46041064453125	0.08067754364013671	0		5.60936962890625	0.2741120910644531	0		-0.46675131225585936	5.83585107421875	0		
-0.01051594352722168	-0.006227766990661621	0		0.5466110229492187	-2.346049072265625	0		-1.10552734375	-0.002917855978012085	0		-0.720739501953125	-2.26427099609375	0		1.057083740234375	-0.5283233642578125	0		2.780706298828125	0.008041766166687012	0		4.44343701171875	0.08690807342529297	0		5.61225439453125	0.2880694274902344	0		-0.4989128112792969	5.8301357421875	0		
4.2691299319267274E-4	0.003695178985595703	0		0.50060498046875	-2.333634765625	0		-1.0846953125	-0.006094332218170166	0		-0.6778178100585938	-2.260629150390625	0		1.08093994140625	-0.5294957275390625	0		2.83757080078125	0.00861283016204834	0		4.45327685546875	0.08490098571777344	0		5.61998095703125	0.2828781433105469	0		-0.4679827575683594	5.8478818359375	0		
-0.0018527569770812988	7.272980213165283E-4	0		0.5265487060546875	-2.31383447265625	0		-1.0998896484375	0.001033923029899597	0		-0.745837646484375	-2.23604736328125	0		1.075743408203125	-0.5234248657226562	0		2.79040283203125	0.01906167984008789	0		4.4600888671875	0.09291260528564453	0		5.61629541015625	0.3003976745605469	0		-0.4493284301757812	5.84572998046875	0		
-0.001213616967201233	7.326859831809998E-4	0		0.4971991271972656	-2.31556884765625	0		-1.1032841796875	-0.0029395599365234374	0		-0.6782593383789063	-2.246617431640625	0		1.1183448486328125	-0.52876220703125	0		2.7888896484375	0.0011173650026321412	0		4.45262548828125	0.08103842163085938	0		5.6116689453125	0.27467254638671873	0		-0.4638418884277344	5.835857421875	0		
-0.003699821949005127	-0.0022372469902038573	0		0.49776339721679685	-2.315558837890625	0		-1.106770263671875	-0.0059130401611328124	0		-0.7308038330078125	-2.259171630859375	0		1.0738997802734376	-0.5273650512695313	0		2.78753857421875	0.014168788909912109	0		4.44621484375	0.08715048217773437	0		5.6120537109375	0.2747845458984375	0		-0.4623748779296875	5.8348486328125	0		
-2.2870199382305146E-4	7.414299845695495E-4	0		0.498232421875	-2.315549560546875	0		-1.1022991943359375	-0.0029538300037384034	0		-0.6464312744140625	-2.270883544921875	0		1.080300048828125	-0.5334005737304688	0		2.8288056640625	-0.0071446199417114255	0		4.45360888671875	0.08114017486572266	0		5.61587890625	0.25751480102539065	0		-0.4960283203125	5.83013525390625	0		
1.3136300444602965E-4	7.455390095710754E-4	0		0.5304351196289062	-2.336810302734375	0		-1.097905517578125	0.0010064619779586793	0		-0.705048583984375	-2.2703876953125	0		1.054758544921875	-0.5221678466796875	0		2.79939453125	0.02013706588745117	0		4.44701904296875	0.08724327850341797	0		5.617712890625	0.3008274536132812	0		-0.4957208251953125	5.830134765625	0		
4.1326200962066653E-4	7.500410079956055E-4	0		0.5019559936523438	-2.31055810546875	0		-1.09762353515625	0.001002102017402649	0		-0.6745219116210938	-2.243642578125	0		1.0750018310546876	-0.5273231811523438	0		2.810557861328125	0.006071967124938965	0		4.4582998046875	0.08719097900390625	0		5.61501953125	0.2888611755371094	0		-0.46144503784179686	5.8348486328125	0		
6.246529817581177E-4	7.552189826965332E-4	0		0.49914215087890623	-2.315523681640625	0		-1.1014456787109375	-0.0029668641090393067	0		-0.7122929077148438	-2.243322509765625	0		1.075217041015625	-0.5273102416992187	0		2.809870361328125	0.01810551452636719	0		4.44751123046875	0.08732109069824219	0		5.612982421875	0.27514364624023435	0		-0.4612759704589844	5.8348505859375	0		
-0.002251981019973755	-0.0022134358882904053	0		0.5232628784179687	-2.32071630859375	0		-1.105322265625	-0.0059343199729919435	0		-0.6781730346679687	-2.24860693359375	0		1.0753690185546876	-0.5272971801757812	0		2.784935302734375	0.008340560913085937	0		4.4546083984375	0.08129752349853515	0		5.6130888671875	0.27521658325195314	0		-0.4621571960449219	5.83586181640625	0		
8.664039969444275E-4	7.681879997253418E-4	0		0.5002192687988282	-2.33851220703125	0		-1.0852548828125	-0.009101860046386719	0		-0.683242919921875	-2.269561279296875	0		1.081414794921875	-0.5333341064453125	0		2.793120849609375	0.019296215057373046	0		4.44775146484375	0.0873892364501953	0		5.61315576171875	0.2752846374511719	0		-0.4951474304199219	5.83014404296875	0		
